<?xml version="1.0" standalone="no"?>
<!DOCTYPE svg PUBLIC "-//W3C//DTD SVG 20010904//EN"
 "http://www.w3.org/TR/2001/REC-SVG-20010904/DTD/svg10.dtd">
<svg version="1.0" xmlns="http://www.w3.org/2000/svg"
 width="512.000000pt" height="512.000000pt" viewBox="0 0 512.000000 512.000000"
 preserveAspectRatio="xMidYMid meet">
<metadata>
Created by potrace 1.11, written by Peter Selinger 2001-2013
</metadata>
<g transform="translate(0.000000,512.000000) scale(0.100000,-0.100000)"
fill="#000000" stroke="none">
<path d="M3300 4220 l0 -900 -740 0 -740 0 0 -825 0 -825 -910 0 -910 0 0
-835 0 -835 910 0 910 0 0 835 0 835 740 0 740 0 0 825 0 825 910 0 910 0 0
900 0 900 -910 0 -910 0 0 -900z"/>
<path d="M1860 4660 l0 -160 205 0 205 0 0 160 0 160 -205 0 -205 0 0 -160z"/>
<path d="M420 3945 l0 -225 210 0 210 0 0 225 0 225 -210 0 -210 0 0 -225z"/>
<path d="M540 2575 l0 -365 455 0 455 0 0 365 0 365 -455 0 -455 0 0 -365z"/>
<path d="M3670 2475 l0 -195 190 0 190 0 0 195 0 195 -190 0 -190 0 0 -195z"/>
<path d="M3010 735 l0 -375 390 0 390 0 0 375 0 375 -390 0 -390 0 0 -375z"/>
</g>
</svg>
